<svg width="22" height="22" viewBox="0 0 22 22" fill="none" xmlns="http://www.w3.org/2000/svg">
<g clip-path="url(#clip0_2510_5558)">
<path d="M11 22C17.0751 22 22 17.0751 22 11C22 4.92487 17.0751 0 11 0C4.92487 0 0 4.92487 0 11C0 17.0751 4.92487 22 11 22Z" fill="#3B5998"/>
<path d="M13.7653 11.4308H11.8025V18.6216H8.82867V11.4308H7.41431V8.90363H8.82867V7.26827C8.82867 6.09882 9.38418 4.26758 11.829 4.26758L14.0318 4.27679V6.72982H12.4335C12.1713 6.72982 11.8027 6.86081 11.8027 7.41867V8.90598H14.0251L13.7653 11.4308Z" fill="white"/>
</g>
<defs>
<clipPath id="clip0_2510_5558">
<rect width="22" height="22" fill="white"/>
</clipPath>
</defs>
</svg>
