<svg width="23" height="23" viewBox="0 0 23 23" fill="none" xmlns="http://www.w3.org/2000/svg">
<g clip-path="url(#clip0_2510_5550)">
<path fill-rule="evenodd" clip-rule="evenodd" d="M11.15 0C17.3048 0 22.3 4.9952 22.3 11.15C22.3 17.3048 17.3048 22.3 11.15 22.3C4.9952 22.3 0 17.3048 0 11.15C0 4.9952 4.9952 0 11.15 0ZM16.7324 6.70487L5.9095 6.67513L11.321 10.9716L16.7324 6.70487ZM10.0424 12.1684L5.31483 8.4517V15.5134H17.0075V8.60037L12.6218 12.1832C11.1351 13.3949 11.5811 13.3726 10.0424 12.1684ZM5.3743 5.32227H17.0372C17.9812 5.32227 18.7469 6.09533 18.7469 7.03193V15.2086C18.7469 16.1526 17.9738 16.9183 17.0372 16.9183H5.3743C4.43027 16.9183 3.66463 16.1452 3.66463 15.2086V7.03193C3.66463 6.0879 4.4377 5.32227 5.3743 5.32227Z" fill="#FF4D4D"/>
</g>
<defs>
<clipPath id="clip0_2510_5550">
<rect width="22.3" height="22.3" fill="white"/>
</clipPath>
</defs>
</svg>
