<svg width="22" height="22" viewBox="0 0 22 22" fill="none" xmlns="http://www.w3.org/2000/svg">
<g clip-path="url(#clip0_2510_5577)">
<path d="M11 22C17.0751 22 22 17.0751 22 11C22 4.92487 17.0751 0 11 0C4.92487 0 0 4.92487 0 11C0 17.0751 4.92487 22 11 22Z" fill="#018AD2"/>
<path d="M17.5724 11.8852V16.4202H14.9431V12.1891C14.9431 11.1267 14.5634 10.4012 13.6114 10.4012C12.8849 10.4012 12.4534 10.8896 12.2628 11.3626C12.1935 11.5316 12.1757 11.7663 12.1757 12.0034V16.42H9.5462C9.5462 16.42 9.58149 9.25389 9.5462 8.5121H12.1759V9.63272C12.1706 9.64155 12.1632 9.65018 12.1584 9.65861H12.1759V9.63272C12.5253 9.09506 13.1485 8.3264 14.5456 8.3264C16.2755 8.3264 17.5724 9.45664 17.5724 11.8852ZM6.79551 4.7002C5.89607 4.7002 5.30762 5.29061 5.30762 6.06632C5.30762 6.82557 5.87901 7.43304 6.761 7.43304H6.77806C7.69515 7.43304 8.26537 6.82557 8.26537 6.06632C8.24792 5.29061 7.69515 4.7002 6.79551 4.7002ZM5.4639 16.4202H8.09242V8.5121H5.4639V16.4202Z" fill="#F1F2F2"/>
</g>
<defs>
<clipPath id="clip0_2510_5577">
<rect width="22" height="22" fill="white"/>
</clipPath>
</defs>
</svg>
