<svg width="20" height="20" viewBox="0 0 20 20" fill="none" xmlns="http://www.w3.org/2000/svg">
<path d="M8.46678 9.40037V13.3005C8.46678 13.7514 8.28768 14.1838 7.96888 14.5026C7.65008 14.8214 7.21769 15.0005 6.76684 15.0005H2.70056C2.24965 15.0005 1.8172 14.8214 1.4983 14.5026C1.1794 14.1838 1.00016 13.7514 1 13.3005V3.63415C1.00016 3.18319 1.17938 2.75074 1.49826 2.43186C1.81714 2.11298 2.24959 1.93376 2.70056 1.93359H4.26671" stroke="#7051EF" stroke-width="0.962514" stroke-linecap="round" stroke-linejoin="round"/>
<path d="M13.1334 1H8C7.50492 1 7.03012 1.19667 6.68004 1.54674C6.32997 1.89682 6.1333 2.37162 6.1333 2.86669V5.66674C6.1333 6.16181 6.32997 6.63662 6.68004 6.98669C7.03012 7.33676 7.50492 7.53343 8 7.53343H10.3334V9.8668L12.6667 7.53343H13.1334C13.6285 7.53343 14.1033 7.33676 14.4534 6.98669C14.8034 6.63662 15.0001 6.16181 15.0001 5.66674V2.86669C15.0001 2.37162 14.8034 1.89682 14.4534 1.54674C14.1033 1.19667 13.6285 1 13.1334 1V1Z" stroke="#7051EF" stroke-width="0.962514" stroke-linecap="round" stroke-linejoin="round"/>
</svg>
