<svg width="35" height="35" viewBox="0 0 35 35" fill="none" xmlns="http://www.w3.org/2000/svg">
<g filter="url(#filter0_d_1981_8903)">
<rect x="6.79663" y="3" width="22.2966" height="22.2966" rx="11.1483" fill="#1DA1F2"/>
</g>
<path d="M20.0208 9.12137V9.11914H20.5997L20.8112 9.16156C20.9522 9.1891 21.0802 9.2252 21.1952 9.26985C21.3102 9.31451 21.4215 9.36661 21.5291 9.42615C21.6367 9.48568 21.7343 9.54635 21.8219 9.60812C21.9087 9.66915 21.9867 9.7339 22.0557 9.80237C22.1239 9.87159 22.2304 9.88945 22.3751 9.85596C22.5198 9.82247 22.6757 9.77595 22.8426 9.71641C23.0096 9.65687 23.1747 9.58989 23.338 9.51546C23.5013 9.44103 23.6007 9.39377 23.6363 9.37368C23.6712 9.35285 23.6898 9.34168 23.692 9.34019L23.6942 9.33684L23.7053 9.33125L23.7165 9.32567L23.7276 9.32009L23.7387 9.31451L23.741 9.31116L23.7443 9.30893L23.7476 9.30669L23.7499 9.30334L23.761 9.3L23.7721 9.29776L23.7699 9.31451L23.7666 9.33125L23.761 9.348L23.7554 9.36475L23.7499 9.37591L23.7443 9.38707L23.7387 9.40382C23.735 9.41498 23.7313 9.42987 23.7276 9.44848C23.7239 9.46709 23.6886 9.5415 23.6218 9.67175C23.5551 9.802 23.4716 9.93411 23.3714 10.0681C23.2712 10.202 23.1814 10.3033 23.102 10.3717C23.0219 10.4409 22.9688 10.4893 22.9428 10.5169C22.9169 10.5451 22.8853 10.5712 22.8482 10.595L22.7926 10.6318L22.7814 10.6374L22.7703 10.643L22.7681 10.6464L22.7647 10.6486L22.7614 10.6508L22.7592 10.6542L22.748 10.6598L22.7369 10.6653L22.7347 10.6687L22.7313 10.6709L22.728 10.6732L22.7258 10.6765L22.7236 10.6799L22.7202 10.6821L22.7169 10.6843L22.7146 10.6877H22.7703L23.082 10.6207C23.2898 10.576 23.4883 10.5221 23.6775 10.4588L23.9781 10.3583L24.0114 10.3472L24.0281 10.3416L24.0393 10.336L24.0504 10.3304L24.0615 10.3248L24.0727 10.3193L24.0949 10.3159L24.1172 10.3137V10.336L24.1116 10.3382L24.1061 10.3416L24.1038 10.3449L24.1005 10.3472L24.0972 10.3494L24.0949 10.3528L24.0927 10.3561L24.0894 10.3583L24.086 10.3606L24.0838 10.3639L24.0816 10.3673L24.0782 10.3695L24.0727 10.3807L24.0671 10.3918L24.0638 10.3941C24.0623 10.3963 24.0152 10.4595 23.9224 10.5838C23.8296 10.7089 23.7795 10.7721 23.7721 10.7736C23.7647 10.7759 23.7543 10.787 23.741 10.8071C23.7283 10.828 23.6497 10.9109 23.505 11.0561C23.3603 11.2012 23.2185 11.3303 23.0798 11.4435C22.9402 11.5573 22.8697 11.6973 22.8683 11.8632C22.866 12.0285 22.8575 12.2153 22.8426 12.4237C22.8278 12.6321 22.8 12.8572 22.7592 13.0991C22.7184 13.341 22.6553 13.6145 22.5699 13.9196C22.4846 14.2248 22.3807 14.5225 22.2582 14.8127C22.1358 15.103 22.0078 15.3635 21.8742 15.5942C21.7406 15.8249 21.6182 16.0203 21.5069 16.1803C21.3956 16.3403 21.2824 16.491 21.1674 16.6324C21.0524 16.7739 20.9069 16.9331 20.731 17.1103C20.5544 17.2866 20.4579 17.3834 20.4416 17.4005C20.4246 17.4169 20.3518 17.4779 20.2234 17.5836C20.0958 17.69 19.9585 17.7965 19.8116 17.9029C19.6654 18.0086 19.5311 18.0968 19.4086 18.1675C19.2862 18.2382 19.1385 18.3189 18.9656 18.4097C18.7934 18.5013 18.6071 18.5861 18.4068 18.6643C18.2064 18.7424 17.9949 18.815 17.7723 18.882C17.5497 18.949 17.3345 19.0011 17.1267 19.0383C16.9189 19.0755 16.6833 19.1071 16.4198 19.1332L16.0247 19.1722V19.1778H15.3011V19.1722L15.2065 19.1666C15.1434 19.1629 15.0915 19.1592 15.0507 19.1555C15.0099 19.1518 14.8559 19.1313 14.5887 19.0941C14.3216 19.0569 14.1119 19.0197 13.9598 18.9824C13.8077 18.9452 13.5813 18.8745 13.2808 18.7703C12.9802 18.6661 12.7231 18.5608 12.5094 18.4544C12.2964 18.3487 12.1628 18.2817 12.1086 18.2534C12.0552 18.2259 11.9951 18.1917 11.9283 18.1507L11.8281 18.0893L11.8259 18.086L11.8226 18.0837L11.8192 18.0815L11.817 18.0782L11.8059 18.0726L11.7947 18.067L11.7925 18.0637L11.7892 18.0614L11.7858 18.0592L11.7836 18.0558L11.7814 18.0525L11.778 18.0503H11.7725V18.0279L11.7836 18.0302L11.7947 18.0335L11.8448 18.0391C11.8782 18.0428 11.9691 18.0484 12.1175 18.0558C12.266 18.0633 12.4236 18.0633 12.5906 18.0558C12.7576 18.0484 12.9283 18.0316 13.1027 18.0056C13.2771 17.9796 13.483 17.9349 13.7205 17.8716C13.9579 17.8084 14.1761 17.7332 14.375 17.6461C14.5731 17.5583 14.7141 17.4928 14.798 17.4496C14.8811 17.4072 15.008 17.3283 15.1787 17.213L15.4347 17.0399L15.4369 17.0366L15.4403 17.0343L15.4436 17.0321L15.4458 17.0288L15.4481 17.0254L15.4514 17.0232L15.4547 17.0209L15.457 17.0176L15.4681 17.0142L15.4792 17.012L15.4814 17.0009L15.4848 16.9897L15.4881 16.9875L15.4904 16.9841L15.4013 16.9785C15.3419 16.9748 15.2844 16.9711 15.2288 16.9674C15.1731 16.9636 15.0859 16.9469 14.9672 16.9171C14.8484 16.8873 14.7204 16.8427 14.5831 16.7832C14.4459 16.7236 14.3123 16.6529 14.1824 16.571C14.0526 16.4892 13.9587 16.4211 13.9008 16.3667C13.8436 16.3131 13.7694 16.2372 13.6782 16.139C13.5876 16.04 13.509 15.9384 13.4422 15.8342C13.3754 15.73 13.3116 15.6098 13.2507 15.4736L13.1583 15.2704L13.1528 15.2537L13.1472 15.237L13.1439 15.2258L13.1416 15.2146L13.1583 15.2169L13.175 15.2202L13.2975 15.237C13.3791 15.2481 13.5071 15.2518 13.6815 15.2481C13.8559 15.2444 13.9765 15.237 14.0433 15.2258C14.1101 15.2146 14.1509 15.2072 14.1657 15.2035L14.188 15.1979L14.2158 15.1923L14.2436 15.1867L14.2459 15.1834L14.2492 15.1811L14.2526 15.1789L14.2548 15.1756L14.2325 15.17L14.2102 15.1644L14.188 15.1588L14.1657 15.1532L14.1435 15.1476C14.1286 15.1439 14.1026 15.1365 14.0655 15.1253C14.0284 15.1142 13.9282 15.0732 13.765 15.0025C13.6017 14.9318 13.4719 14.863 13.3754 14.796C13.2787 14.7288 13.1865 14.6553 13.0993 14.5761C13.0125 14.4957 12.9171 14.3922 12.8132 14.2657C12.7094 14.1392 12.6166 13.9922 12.535 13.8247C12.4533 13.6573 12.3921 13.4973 12.3513 13.3447C12.3106 13.193 12.2838 13.0379 12.2712 12.8814L12.2511 12.6469L12.2622 12.6492L12.2734 12.6525L12.2845 12.6581L12.2956 12.6637L12.3068 12.6693L12.3179 12.6748L12.4904 12.753C12.6055 12.8051 12.7483 12.8497 12.919 12.887C13.0897 12.9242 13.1917 12.9446 13.2251 12.9484L13.2752 12.9539H13.3754L13.3732 12.9506L13.3698 12.9484L13.3665 12.9461L13.3643 12.9428L13.362 12.9394L13.3587 12.9372L13.3553 12.935L13.3531 12.9316L13.342 12.926L13.3309 12.9204L13.3286 12.9171L13.3253 12.9149L13.322 12.9126L13.3197 12.9093L13.3086 12.9037L13.2975 12.8981L13.2952 12.8948C13.293 12.8933 13.2611 12.8695 13.1995 12.8233C13.1387 12.7764 13.0748 12.7158 13.008 12.6413C12.9413 12.5669 12.8745 12.4888 12.8077 12.4069C12.7408 12.3249 12.6812 12.2371 12.6296 12.1446C12.5776 12.0515 12.5227 11.9332 12.4648 11.7895C12.4077 11.6466 12.3643 11.5026 12.3346 11.3575C12.3049 11.2124 12.2882 11.0691 12.2845 10.9277C12.2808 10.7863 12.2845 10.6653 12.2956 10.5649C12.3068 10.4644 12.329 10.3509 12.3624 10.2244C12.3958 10.0978 12.4441 9.96388 12.5071 9.82247L12.6018 9.61035L12.6073 9.59361L12.6129 9.57686L12.6162 9.57463L12.6184 9.57128L12.6207 9.56793L12.624 9.5657L12.6274 9.56793L12.6296 9.57128L12.6318 9.57463L12.6351 9.57686L12.6385 9.57909L12.6407 9.58244L12.6429 9.58579L12.6463 9.58802L12.6518 9.59919L12.6574 9.61035L12.6608 9.61258L12.663 9.61593L12.8132 9.78339C12.9134 9.89503 13.0322 10.0197 13.1695 10.1574C13.3067 10.2951 13.3828 10.3665 13.3976 10.3717C13.4125 10.3777 13.431 10.3948 13.4533 10.4231C13.4756 10.4506 13.5498 10.5165 13.6759 10.6207C13.8021 10.7249 13.9672 10.8458 14.1713 10.9835C14.3754 11.1212 14.6017 11.257 14.8503 11.391C15.0989 11.525 15.3661 11.6459 15.6518 11.7538C15.9375 11.8617 16.1378 11.9324 16.2529 11.9659C16.3679 11.9994 16.5645 12.0422 16.8428 12.0943C17.1211 12.1464 17.3308 12.1799 17.4717 12.1948C17.6127 12.2097 17.7092 12.2182 17.7612 12.2205L17.8391 12.2227L17.8369 12.206L17.8335 12.1892L17.8113 12.0497C17.7964 11.9566 17.789 11.8264 17.789 11.6589C17.789 11.4915 17.802 11.337 17.8279 11.1956C17.8539 11.0542 17.8929 10.9109 17.9448 10.7658C17.9968 10.6207 18.0476 10.5042 18.0973 10.4164C18.1478 10.3293 18.2138 10.2299 18.2955 10.1183C18.3771 10.0067 18.4829 9.89131 18.6127 9.77223C18.7426 9.65314 18.891 9.54709 19.058 9.45406C19.2249 9.36103 19.3789 9.29032 19.5199 9.24194C19.6609 9.19357 19.7797 9.16193 19.8761 9.14705C19.9726 9.13217 20.0208 9.12361 20.0208 9.12137Z" fill="white"/>
<defs>
<filter id="filter0_d_1981_8903" x="0.957046" y="0.345643" width="33.9758" height="33.9756" filterUnits="userSpaceOnUse" color-interpolation-filters="sRGB">
<feFlood flood-opacity="0" result="BackgroundImageFix"/>
<feColorMatrix in="SourceAlpha" type="matrix" values="0 0 0 0 0 0 0 0 0 0 0 0 0 0 0 0 0 0 127 0" result="hardAlpha"/>
<feOffset dy="3.18523"/>
<feGaussianBlur stdDeviation="2.91979"/>
<feColorMatrix type="matrix" values="0 0 0 0 0.113725 0 0 0 0 0.631373 0 0 0 0 0.94902 0 0 0 0.25 0"/>
<feBlend mode="normal" in2="BackgroundImageFix" result="effect1_dropShadow_1981_8903"/>
<feBlend mode="normal" in="SourceGraphic" in2="effect1_dropShadow_1981_8903" result="shape"/>
</filter>
</defs>
</svg>
